#!OML:ASF I:\golf\golf\golf 2\Subject 1\2002-09-07\Subject1.ASF
:FULLY-SPECIFIED
:DEGREES
136
root -6.03008 17.8428 0.233277 -105.452 85.3661 -123.679
lowerback 0.191471 2.1984 -1.33298
upperback 3.76411 2.94828 3.86343
thorax 3.50453 1.40741 4.82902
lowerneck -15.6141 -2.38517 1.05021
upperneck 39.5226 -0.412136 -3.87651
head 16.9709 0.0263007 -1.83235
rclavicle 5.60573e-014 6.04305e-014
rhumerus -6.91555 -0.899908 -102.469
rradius 22.29
rwrist -41.7173
rhand -14.8576 -7.40901
rfingers 7.12502
rthumb 11.3021 -37.0845
lclavicle 5.60573e-014 6.04305e-014
lhumerus -10.2386 -51.1154 110.219
lradius 22.0672
lwrist 29.741
lhand -7.02238 71.5401
lfingers 7.12502
lthumb -161.151 79.3532
rfemur -29.7596 -2.03051 11.7545
rtibia 25.089
rfoot -7.4889 -9.98056
rtoes -5.72101
lfemur -31.6606 10.1871 -8.67558
ltibia 27.9762
lfoot -10.0355 -3.1085
ltoes -21.68
137
root -6.03123 17.8451 0.232942 -106.142 85.3678 -124.342
lowerback 0.20664 2.25443 -1.2881
upperback 3.78125 3.02288 3.84357
thorax 3.51001 1.44621 4.78424
lowerneck -15.6392 -2.44576 1.01153
upperneck 39.5766 -0.49952 -3.82989
head 17.0037 -0.00551258 -1.82152
rclavicle -2.10712e-014 -2.38542e-014
rhumerus -7.01107 -0.854815 -102.437
rradius 22.535
rwrist -42.1968
rhand -15.0587 -7.41822
rfingers 7.12502
rthumb 11.1082 -37.1042
lclavicle -2.10712e-014 -2.38542e-014
lhumerus -10.2101 -51.5958 110.216
lradius 22.0064
lwrist 29.4282
lhand -6.63808 71.2275
lfingers 7.12502
lthumb -160.781 79.7021
rfemur -29.7963 -2.0993 11.729
rtibia 25.2315
rfoot -8.01875 -9.87328
rtoes 1.60597
lfemur -31.6968 10.1517 -8.69285
ltibia 28.0776
lfoot -10.0594 -3.18719
ltoes -21.0631
138
root -6.03334 17.8436 0.232097 -106.838 85.29 -125.061
lowerback 0.188387 2.27378 -1.18662
upperback 3.78433 3.04724 3.85771
thorax 3.52552 1.46139 4.74328
lowerneck -15.6713 -2.48713 0.975128
upperneck 39.5981 -0.557621 -3.80263
head 17.0219 -0.0297777 -1.81413
rclavicle -3.57812e-015 1.59028e-014
rhumerus -7.09822 -0.863615 -102.421
rradius 22.7364
rwrist -42.7051
rhand -15.2787 -7.30588
rfingers 7.12502
rthumb 10.8959 -37.0032
lclavicle -3.57812e-015 1.59028e-014
lhumerus -10.1984 -52.4253 110.155
lradius 22.0818
lwrist 29.5367
lhand -6.25613 70.9909
lfingers 7.12502
lthumb -160.414 79.9757
rfemur -29.886 -2.09447 11.7526
rtibia 25.3857
rfoot -9.57988 -9.4298
rtoes 23.3538
lfemur -31.7919 10.128 -8.64813
ltibia 28.158
lfoot -10.0911 -3.26004
ltoes -20.6698
139
root -6.03669 17.839 0.23224 -107.77 85.2352 -126.024
lowerback 0.195382 2.2488 -1.13069
upperback 3.77098 3.01315 3.86803
thorax 3.51288 1.44646 4.72092
lowerneck -15.6426 -2.47073 0.934898
upperneck 39.5369 -0.532453 -3.78633
head 16.9827 -0.0251655 -1.79305
rclavicle 4.37326e-015 -1.59028e-014
rhumerus -7.27476 -0.549091 -102.433
rradius 23.0467
rwrist -43.594
rhand -15.7563 -7.12494
rfingers 7.12502
rthumb 10.4353 -36.846
lclavicle 4.37326e-015 -1.59028e-014
lhumerus -10.1429 -53.1815 110
lradius 22.1898
lwrist 29.6563
lhand -5.73794 70.8112
lfingers 7.12502
lthumb -159.916 80.2069
rfemur -30.0033 -2.08352 11.7399
rtibia 25.5681
rfoot -7.82843 -9.97346
rtoes -4.74426
lfemur -31.8987 10.0778 -8.63259
ltibia 28.218
lfoot -10.0923 -3.28391
ltoes -20.6412
140
root -6.03942 17.8331 0.23494 -108.492 85.2865 -126.7
lowerback 0.270693 2.24324 -1.16896
upperback 3.76682 3.00708 3.84019
thorax 3.46604 1.44334 4.70926
lowerneck -15.5601 -2.45101 0.847001
upperneck 39.4684 -0.508132 -3.70963
head 16.9269 -0.0188844 -1.73524
rclavicle 1.90833e-014 5.48646e-014
rhumerus -7.58144 -0.0234412 -102.446
rradius 23.5357
rwrist -44.8313
rhand -16.1571 -6.9266
rfingers 7.12502
rthumb 10.0486 -36.6667
lclavicle 1.90833e-014 5.48646e-014
lhumerus -10.0894 -53.9407 109.821
lradius 22.2701
lwrist 29.5852
lhand -5.05807 70.6845
lfingers 7.12502
lthumb -159.262 80.4035
rfemur -30.0613 -1.99869 11.6298
rtibia 25.7764
rfoot -9.32884 -9.54636
rtoes 20.3902
lfemur -31.9279 10.0935 -8.71679
ltibia 28.2958
lfoot -10.1527 -3.26045
ltoes -21.1868
141
root -6.04314 17.8276 0.240125 -108.096 85.3716 -126.213
lowerback 0.347145 2.27437 -1.23694
upperback 3.80573 3.05051 3.81558
thorax 3.45738 1.46317 4.72033
lowerneck -15.4864 -2.4516 0.794071
upperneck 39.3812 -0.514724 -3.67303
head 16.8612 -0.0265473 -1.70736
rclavicle -1.74931e-014 3.26007e-014
rhumerus -7.82641 0.158463 -102.458
rradius 23.9903
rwrist -45.7386
rhand -16.428 -6.7123
rfingers 7.12502
rthumb 9.78721 -36.4649
lclavicle -1.74931e-014 3.26007e-014
lhumerus -9.97982 -55.309 109.561
lradius 22.463
lwrist 29.9793
lhand -4.32792 70.6573
lfingers 7.12502
lthumb -158.561 80.5089
rfemur -30.1324 -1.95149 11.5869
rtibia 26.0115
rfoot -7.88338 -9.97353
rtoes -9.89863
lfemur -31.8834 10.2476 -8.79571
ltibia 28.379
lfoot -10.2687 -3.29887
ltoes -21.973
142
root -6.04759 17.8249 0.247028 -106.227 85.4571 -124.254
lowerback 0.413214 2.33704 -1.28513
upperback 3.85329 3.13566 3.80181
thorax 3.46021 1.50418 4.73307
lowerneck -15.4384 -2.44364 0.805435
upperneck 39.2981 -0.496054 -3.72193
head 16.8042 -0.0263167 -1.72537
rclavicle -9.54166e-015 -6.04305e-014
rhumerus -8.02361 0.142536 -102.467
rradius 24.3996
rwrist -46.1864
rhand -16.7019 -6.62993
rfingers 7.12502
rthumb 9.52298 -36.3947
lclavicle -9.54166e-015 -6.04305e-014
lhumerus -9.86867 -57.025 109.266
lradius 22.7461
lwrist 30.8018
lhand -3.83502 70.6449
lfingers 7.12502
lthumb -158.088 80.576
rfemur -30.2664 -1.85235 11.6084
rtibia 26.2912
rfoot -7.92376 -9.87241
rtoes -9.79062
lfemur -31.7736 10.4627 -8.78766
ltibia 28.4437
lfoot -10.3375 -3.41596
ltoes -21.7477
143
root -6.05311 17.8224 0.25329 -104.22 85.5985 -122.16
lowerback 0.539977 2.41151 -1.35694
upperback 3.85987 3.23709 3.74106
thorax 3.38579 1.55446 4.70514
lowerneck -15.3862 -2.42248 0.821551
upperneck 39.2572 -0.467685 -3.73123
head 16.7698 -0.0139598 -1.72544
rclavicle 4.37326e-014 8.50798e-014
rhumerus -8.36713 0.393354 -102.513
rradius 24.9901
rwrist -46.9565
rhand -16.9895 -6.6761
rfingers 7.12502
rthumb 9.24546 -36.4534
lclavicle 4.37326e-014 8.50798e-014
lhumerus -9.90283 -58.7526 109.022
lradius 23.0899
lwrist 31.5448
lhand -3.37455 71.1583
lfingers 7.12502
lthumb -157.646 80.115
rfemur -30.4068 -1.5508 11.491
rtibia 26.5946
rfoot -9.80287 -9.17826
rtoes 24.3262
lfemur -31.6593 10.6027 -8.81302
ltibia 28.5243
lfoot -10.4201 -3.39792
ltoes -21.2466
144
root -6.06026 17.8175 0.259216 -102.223 85.7942 -120.098
lowerback 0.630632 2.39589 -1.53266
upperback 3.82692 3.21823 3.71334
thorax 3.29452 1.54145 4.76883
lowerneck -15.1409 -2.3327 0.67533
upperneck 39.1719 -0.286352 -3.71347
head 16.6714 0.0421787 -1.65265
rclavicle -1.03368e-014 1.66979e-014
rhumerus -8.88528 1.0658 -102.583
rradius 25.6958
rwrist -48.1037
rhand -17.36 -6.74653
rfingers 7.12502
rthumb 8.88799 -36.5393
lclavicle -1.03368e-014 1.66979e-014
lhumerus -9.97357 -60.2694 108.835
lradius 23.4236
lwrist 32.2005
lhand -2.83596 72.4174
lfingers 7.12502
lthumb -157.129 78.9188
rfemur -30.5859 -1.23229 11.3034
rtibia 26.9031
rfoot -10.2152 -8.86795
rtoes 30.061
lfemur -31.6088 10.6817 -8.89598
ltibia 28.6351
lfoot -10.4904 -3.29686
ltoes -20.7809
145
root -6.06598 17.8109 0.269794 -97.5492 85.8914 -115.357
lowerback 0.648161 2.31865 -1.72952
upperback 3.79693 3.1165 3.81404
thorax 3.2482 1.48479 4.98204
lowerneck -14.7746 -2.16192 0.316319
upperneck 39.042 0.0837123 -3.68872
head 16.5289 0.145697 -1.50322
rclavicle 2.90226e-014 -2.62396e-014
rhumerus -9.46685 1.89874 -102.642
rradius 26.3615
rwrist -49.0077
rhand -17.8236 -6.92989
rfingers 7.12502
rthumb 8.44061 -36.7412
lclavicle 2.90226e-014 -2.62396e-014
lhumerus -9.91949 -61.6398 108.565
lradius 23.6839
lwrist 32.7931
lhand -2.10254 72.3659
lfingers 7.12502
lthumb -156.425 79.0592
rfemur -30.8309 -0.873574 11.3277
rtibia 27.2386
rfoot -13.279 -6.34641
rtoes 54.3994
lfemur -31.5111 10.8544 -8.79156
ltibia 28.7443
lfoot -10.546 -3.14028
ltoes -20.5486
146
root -6.07218 17.8028 0.282184 -91.6903 85.8771 -109.411
lowerback 0.779955 2.42971 -1.7126
upperback 3.81215 3.2652 3.77213
thorax 3.17817 1.5615 4.92378
lowerneck -14.7745 -2.12379 0.209262
upperneck 39.0217 0.117852 -3.55388
head 16.5203 0.160372 -1.41823
rclavicle -2.38542e-014 -3.33958e-014
rhumerus -9.82564 2.16247 -102.711
rradius 27.0975
rwrist -49.711
rhand -18.345 -7.14975
rfingers 7.12502
rthumb 7.9374 -36.9807
lclavicle -2.38542e-014 -3.33958e-014
lhumerus -9.79941 -64.0509 108.044
lradius 24.1535
lwrist 33.5704
lhand -0.814331 71.4318
lfingers 7.12502
lthumb -155.19 80.1577
rfemur -31.0895 -0.534257 11.4802
rtibia 27.5795
rfoot -10.1668 -8.73618
rtoes 28.1973
lfemur -31.3512 11.0226 -8.55828
ltibia 28.8521
lfoot -10.6353 -2.86039
ltoes -20.859
147
root -6.08225 17.7949 0.296083 -86.0948 85.8944 -103.767
lowerback 0.938795 2.54637 -1.81911
upperback 3.84901 3.42243 3.71308
thorax 3.10926 1.63867 4.91623
lowerneck -14.9563 -2.09123 0.179399
upperneck 39.0463 0.125094 -3.44583
head 16.5795 0.168838 -1.36725
rclavicle -6.36111e-015 -1.59028e-015
rhumerus -10.1724 2.89968 -102.699
rradius 28.085
rwrist -50.8688
rhand -19.0251 -7.28405
rfingers 7.12502
rthumb 7.28096 -37.1388
lclavicle -6.36111e-015 -1.59028e-015
lhumerus -9.34998 -66.3543 107.264
lradius 24.6193
lwrist 34.43
lhand 0.409703 71.0864
lfingers 7.12502
lthumb -154.017 80.6698
rfemur -31.3858 -0.260984 11.5671
rtibia 27.903
rfoot -8.576 -9.15666
rtoes 3.18771
lfemur -31.2451 11.2103 -8.42183
ltibia 28.966
lfoot -10.7109 -2.61209
ltoes -21.2851
148
root -6.09258 17.7918 0.315773 -78.5351 85.8725 -96.157
lowerback 1.04614 2.56555 -2.19268
upperback 3.88142 3.45057 3.79683
thorax 3.05486 1.64198 5.21046
lowerneck -14.9626 -1.93438 -0.00309871
upperneck 38.9721 0.404589 -3.43724
head 16.553 0.252137 -1.28067
rclavicle -1.51076e-014 3.18055e-014
rhumerus -10.6437 4.12615 -102.653
rradius 29.1496
rwrist -52.264
rhand -19.7328 -7.35983
rfingers 7.12502
rthumb 6.59772 -37.237
lclavicle -1.51076e-014 3.18055e-014
lhumerus -8.68861 -68.0172 106.377
lradius 24.9986
lwrist 35.4071
lhand 1.12668 70.6319
lfingers 7.12502
lthumb -153.331 81.2269
rfemur -31.7032 0.316629 11.6084
rtibia 28.2229
rfoot -8.25404 -9.13493
rtoes -3.55355
lfemur -31.0999 11.4855 -8.27206
ltibia 29.065
lfoot -10.7335 -2.28028
ltoes -21.6199
149
root -6.1016 17.7881 0.335715 -70.8997 85.8207 -88.4096
lowerback 1.25859 2.74736 -2.43293
upperback 3.93352 3.69406 3.67596
thorax 2.9572 1.75939 5.21009
lowerneck -15.0876 -1.88066 0.0918279
upperneck 38.9002 0.393486 -3.34309
head 16.5442 0.26727 -1.25934
rclavicle -3.81667e-014 -2.70347e-014
rhumerus -10.9242 4.31688 -102.704
rradius 30.1961
rwrist -53.3902
rhand -20.3734 -7.52371
rfingers 7.12502
rthumb 5.97931 -37.4193
lclavicle -3.81667e-014 -2.70347e-014
lhumerus -8.09191 -70.6695 105.328
lradius 25.6507
lwrist 36.7743
lhand 1.63879 70.9571
lfingers 7.12502
lthumb -152.841 80.9772
rfemur -31.9491 0.944357 11.5763
rtibia 28.5355
rfoot -8.32955 -9.06849
rtoes -2.38466
lfemur -30.845 11.57 -8.10827
ltibia 29.1364
lfoot -10.7086 -1.76628
ltoes -21.4906
